<mxfile host="app.diagrams.net" agent="Mozilla/5.0 (Windows NT 10.0; Win64; x64) AppleWebKit/537.36 (KHTML, like Gecko) Chrome/134.0.0.0 Safari/537.36" version="26.1.3">
  <diagram name="Página-1" id="OoIFKdlBj4Qll8lewujV">
    <mxGraphModel dx="1941" dy="600" grid="1" gridSize="10" guides="1" tooltips="1" connect="1" arrows="1" fold="1" page="1" pageScale="1" pageWidth="827" pageHeight="1169" math="0" shadow="0">
      <root>
        <mxCell id="0" />
        <mxCell id="1" parent="0" />
        <mxCell id="OyczhwtXDYcHluHZrPp9-2" value="ID_Practica&lt;div&gt;No. Practica&lt;/div&gt;&lt;div&gt;Calificacion&lt;/div&gt;&lt;div&gt;Folio_ID&lt;/div&gt;&lt;div&gt;Fecha_ID&lt;/div&gt;" style="rounded=0;whiteSpace=wrap;html=1;" vertex="1" parent="1">
          <mxGeometry x="80" y="560" width="190" height="140" as="geometry" />
        </mxCell>
        <mxCell id="OyczhwtXDYcHluHZrPp9-4" value="ID_Nombre&lt;div&gt;Nombre_Completo&lt;/div&gt;&lt;div&gt;Matricula&lt;/div&gt;&lt;div&gt;e-mail&lt;/div&gt;" style="rounded=0;whiteSpace=wrap;html=1;" vertex="1" parent="1">
          <mxGeometry x="630" y="620" width="190" height="140" as="geometry" />
        </mxCell>
        <mxCell id="OyczhwtXDYcHluHZrPp9-5" value="ID_Fecha&lt;div&gt;Dia&lt;/div&gt;&lt;div&gt;Mes&lt;/div&gt;&lt;div&gt;Año&lt;/div&gt;" style="rounded=0;whiteSpace=wrap;html=1;" vertex="1" parent="1">
          <mxGeometry x="-230" y="710" width="190" height="140" as="geometry" />
        </mxCell>
        <mxCell id="OyczhwtXDYcHluHZrPp9-6" value="ID_Folio&lt;div&gt;Tipo_Practica&lt;/div&gt;&lt;div&gt;Materiales&lt;/div&gt;&lt;div&gt;Descripcion&lt;/div&gt;" style="rounded=0;whiteSpace=wrap;html=1;" vertex="1" parent="1">
          <mxGeometry x="-230" y="430" width="190" height="140" as="geometry" />
        </mxCell>
        <mxCell id="OyczhwtXDYcHluHZrPp9-9" value="ID_Taller&lt;div&gt;&lt;br&gt;&lt;/div&gt;&lt;div&gt;Practica_ID&lt;/div&gt;&lt;div&gt;ID_Nombre&lt;/div&gt;&lt;div&gt;Nombre_Taler&lt;/div&gt;&lt;div&gt;Profesor(a)&lt;/div&gt;&lt;div&gt;&lt;br&gt;&lt;/div&gt;" style="rounded=0;whiteSpace=wrap;html=1;" vertex="1" parent="1">
          <mxGeometry x="360" y="560" width="190" height="140" as="geometry" />
        </mxCell>
        <mxCell id="OyczhwtXDYcHluHZrPp9-10" value="" style="endArrow=classic;html=1;rounded=0;entryX=-0.021;entryY=0.921;entryDx=0;entryDy=0;entryPerimeter=0;" edge="1" parent="1" target="OyczhwtXDYcHluHZrPp9-4">
          <mxGeometry width="50" height="50" relative="1" as="geometry">
            <mxPoint x="550" y="660" as="sourcePoint" />
            <mxPoint x="600" y="610" as="targetPoint" />
          </mxGeometry>
        </mxCell>
        <mxCell id="OyczhwtXDYcHluHZrPp9-11" value="" style="endArrow=classic;html=1;rounded=0;entryX=1.021;entryY=0.571;entryDx=0;entryDy=0;entryPerimeter=0;" edge="1" parent="1" target="OyczhwtXDYcHluHZrPp9-2">
          <mxGeometry width="50" height="50" relative="1" as="geometry">
            <mxPoint x="360" y="640" as="sourcePoint" />
            <mxPoint x="280" y="640" as="targetPoint" />
          </mxGeometry>
        </mxCell>
        <mxCell id="OyczhwtXDYcHluHZrPp9-12" value="" style="endArrow=classic;html=1;rounded=0;entryX=0.995;entryY=0.579;entryDx=0;entryDy=0;entryPerimeter=0;" edge="1" parent="1">
          <mxGeometry width="50" height="50" relative="1" as="geometry">
            <mxPoint x="80" y="560" as="sourcePoint" />
            <mxPoint x="-30.950000000000045" y="501.05999999999995" as="targetPoint" />
          </mxGeometry>
        </mxCell>
        <mxCell id="OyczhwtXDYcHluHZrPp9-13" value="" style="endArrow=classic;html=1;rounded=0;entryX=1;entryY=0.643;entryDx=0;entryDy=0;entryPerimeter=0;" edge="1" parent="1" target="OyczhwtXDYcHluHZrPp9-5">
          <mxGeometry width="50" height="50" relative="1" as="geometry">
            <mxPoint x="80" y="700" as="sourcePoint" />
            <mxPoint x="-30" y="790" as="targetPoint" />
          </mxGeometry>
        </mxCell>
        <mxCell id="OyczhwtXDYcHluHZrPp9-14" value="TABLA DE HECHOS" style="rounded=0;whiteSpace=wrap;html=1;" vertex="1" parent="1">
          <mxGeometry x="360" y="530" width="190" height="30" as="geometry" />
        </mxCell>
        <mxCell id="OyczhwtXDYcHluHZrPp9-15" value="TABLA DE DIMENSIONES" style="rounded=0;whiteSpace=wrap;html=1;" vertex="1" parent="1">
          <mxGeometry x="-230" y="400" width="190" height="30" as="geometry" />
        </mxCell>
        <mxCell id="OyczhwtXDYcHluHZrPp9-16" value="TABLA DE DIMENSIONES" style="rounded=0;whiteSpace=wrap;html=1;" vertex="1" parent="1">
          <mxGeometry x="80" y="530" width="190" height="30" as="geometry" />
        </mxCell>
        <mxCell id="OyczhwtXDYcHluHZrPp9-17" value="TABLA DE DIMENSIONES" style="rounded=0;whiteSpace=wrap;html=1;" vertex="1" parent="1">
          <mxGeometry x="-230" y="680" width="190" height="30" as="geometry" />
        </mxCell>
        <mxCell id="OyczhwtXDYcHluHZrPp9-18" value="TABLA DE DIMENSIONES" style="rounded=0;whiteSpace=wrap;html=1;" vertex="1" parent="1">
          <mxGeometry x="630" y="590" width="190" height="30" as="geometry" />
        </mxCell>
      </root>
    </mxGraphModel>
  </diagram>
</mxfile>
